<svg width="189" height="278" viewBox="0 0 189 278" fill="none" xmlns="http://www.w3.org/2000/svg">
<mask id="mask0" mask-type="alpha" maskUnits="userSpaceOnUse" x="0" y="0" width="189" height="278">
<rect width="189" height="278" fill="#C4C4C4"/>
</mask>
<g mask="url(#mask0)">
<path d="M-2 130L3 116.865L10.5 134.708L21 119.902L31 132.05L48.5 87.252L56.5 105.475L69.5 115.726L77.5 139.643L87.5 130L98 139.643L104 134.708L111 109.838L118 121.228L121.158 115.153L126.426 111.736L130.564 102.625L135.832 132.237L139.97 125.404L145.614 132.237L150.129 116.672L154.267 121.228L159.535 111.736L164.426 113.635L168.941 95.6042L174.584 132.05L179 125.404H185L189 116.865L193.5 137.5" stroke="#66BE87"/>
</g>
</svg>
