<svg width="190" height="278" viewBox="0 0 190 278" fill="none" xmlns="http://www.w3.org/2000/svg">
<mask id="mask0" mask-type="alpha" maskUnits="userSpaceOnUse" x="0" y="0" width="190" height="278">
<rect width="190" height="278" fill="#C4C4C4"/>
</mask>
<g mask="url(#mask0)">
<path d="M-1 176.5L5.26733 167.747L9.78218 149.904L14.297 159.015L19.1881 155.598L24.0792 162.432L29.7228 125.986L34.2376 138.135L39.1287 136.236L44.396 145.728L48.5347 141.172L53.0495 156.737L58.6931 149.904L62.8317 156.737L68.099 127.125L72.2376 136.236L77.505 139.653L83.1485 131.301L87.6634 134.338L92.9307 124.467L97.0693 128.643L102.337 121.81C103.716 113.711 106.55 97.74 106.851 98.6511C107.152 99.5623 113.749 122.822 117.01 134.338L121.901 124.467L126.792 125.986L131.307 121.05L136.198 123.708L141.465 108.902H146.733L150.871 104.726L155.762 105.865L161.406 94.475L165.545 68.2793L169.683 80.4281L175.327 84.6042L179.842 76.2519L184.356 94.475L190 101.309L199 125.986" stroke="#66BE87"/>
</g>
</svg>
