<svg xmlns="http://www.w3.org/2000/svg" width="140" height="111" viewBox="0 0 140 111">
    <g fill="none" fill-rule="evenodd">
        <g>
            <g>
                <path stroke="#1D1D1F" stroke-linecap="round" stroke-width="2" d="M33.917 55.213h33.82C57.643 19.138 46.369 1.1 33.917 1.1c-12.452 0-23.725 18.037-33.82 54.112h33.82z" transform="translate(-26 -653) translate(28 653)"/>
                <path fill="#1D1D1F" fill-rule="nonzero" d="M34.777.687c.224-.16.537-.109.697.116l.74 1.03c7.2 9.955 12.03 14.778 18.197 16.425.267.072.425.346.354.612-.071.267-.345.426-.612.354-6.69-1.787-11.736-6.985-19.493-17.84-.16-.224-.108-.537.117-.697zM20.412 7.824c.124-.247.424-.347.671-.223l3.179 1.584c13.405 6.644 22.19 10.449 32.608 13.679.264.081.411.361.33.625-.082.264-.362.412-.626.33l-1.202-.378C44.61 20.018 35.377 15.883 20.635 8.495c-.247-.124-.347-.425-.223-.671zM13.267 18.552l3.55.288 2.151.17c14.679 1.201 21.573 2.48 30.44 6.476 4.028 1.815 7.854 4.086 11.513 6.883.22.168.262.481.094.7-.168.22-.482.262-.701.094-3.598-2.75-7.358-4.981-11.317-6.765l-.839-.372c-8.197-3.582-14.94-4.823-28.552-5.96l-5.918-.474-.507-.043c-.275-.024-.479-.266-.455-.541.024-.276.266-.48.541-.456zM9.874 26.07c11.284-1.693 20.387-1.348 29.07 1.889 10.77 4.014 20.08 12.41 28.008 26.213.137.24.055.545-.185.683s-.545.055-.682-.185c-7.817-13.61-16.95-21.846-27.49-25.774-8.499-3.168-17.442-3.508-28.572-1.836-.274.04-.528-.147-.57-.42-.04-.274.148-.528.421-.57zM7.009 47.244c10.982-1.789 15.696 1.929 12.906 8.209-.112.252-.408.366-.66.253-.252-.112-.366-.407-.254-.66 2.4-5.4-1.524-8.494-11.831-6.815l-2.104.346c-1.038.172-2.057.343-3.056.513-.272.047-.53-.137-.577-.409-.046-.272.137-.53.409-.577l2.027-.342c1.027-.172 2.073-.344 3.14-.518z" transform="translate(-26 -653) translate(28 653)"/>
                <path fill="#1D1D1F" fill-rule="nonzero" d="M14.828 40.76c7.886-1.22 12.73-.05 14.803 3.223 1.72 2.716 1.39 6.67-.508 11.35-.104.256-.396.38-.652.276-.255-.104-.379-.396-.275-.652 1.788-4.41 2.094-8.065.59-10.44-1.81-2.858-6.27-3.934-13.804-2.769-3.705.583-7.225 1.17-11.183 1.86-.272.046-.531-.136-.579-.408-.047-.272.135-.53.407-.578l2.584-.446c2.955-.505 5.73-.962 8.617-1.416z" transform="translate(-26 -653) translate(28 653)"/>
                <path fill="#1D1D1F" fill-rule="nonzero" d="M17.262 33.232c9.009-1.317 14.499-.225 18.308 3.53l.303.306c2.936 3.03 4.523 6.768 7.93 17.198.085.263-.058.545-.32.63-.263.086-.546-.057-.631-.32l-.816-2.47c-2.912-8.719-4.44-11.943-7.168-14.632-3.481-3.431-8.537-4.489-16.97-3.323l-.491.07c-1.123.164-2.27.337-3.504.528l-7.52 1.188c-.273.043-.529-.143-.572-.416-.038-.242.105-.472.329-.55l.087-.022c-.016.003 5.212-.83 6.77-1.072l1.485-.229c.963-.147 1.88-.285 2.78-.416z" transform="translate(-26 -653) translate(28 653)"/>
                <path stroke="#1D1D1F" stroke-linecap="round" stroke-width="2" d="M101.917 55.787h33.82c-10.094 36.075-21.368 54.112-33.82 54.112-12.452 0-23.725-18.037-33.82-54.112h33.82z" transform="translate(-26 -653) translate(28 653)"/>
                <path fill="#1D1D1F" fill-rule="nonzero" d="M103.047 91.903c.224-.16.536-.109.697.116l.734 1.019c6.902 9.515 11.743 14.319 17.752 16.009.266.075.42.35.346.617-.075.266-.35.42-.617.346-6.524-1.835-11.593-7.024-19.028-17.409-.16-.225-.109-.537.116-.698z" transform="translate(-26 -653) translate(28 653) matrix(1 0 0 -1 0 201.838)"/>
                <path fill="#1D1D1F" fill-rule="nonzero" d="M88.495 87.4c.124-.246.424-.346.671-.223l3.172 1.582c13.383 6.63 22.215 10.451 32.642 13.674.264.081.412.361.33.625-.081.264-.361.412-.625.33l-1.203-.377c-10.774-3.417-20.056-7.569-34.764-14.94-.247-.123-.346-.424-.223-.67z" transform="translate(-26 -653) translate(28 653) matrix(1 0 0 -1 0 190.535)"/>
                <path fill="#1D1D1F" fill-rule="nonzero" d="M81.52 78.148l5.448.436c14.679 1.2 21.573 2.48 30.44 6.476 3.827 1.724 7.47 3.86 10.963 6.467.222.165.267.478.102.7-.165.221-.479.266-.7.101-3.434-2.564-7.015-4.662-10.776-6.357l-.839-.372c-8.197-3.581-14.94-4.823-28.552-5.959l-6.17-.496c-.276-.024-.48-.266-.457-.54.024-.276.266-.48.541-.456z" transform="translate(-26 -653) translate(28 653) matrix(1 0 0 -1 0 170.573)"/>
                <path fill="#1D1D1F" fill-rule="nonzero" d="M77.276 58.227l1.397-.214c11.948-1.792 19.71-1.807 27.771.745 10.798 3.418 20.067 11.502 28.197 25.659.138.24.055.545-.184.682-.24.138-.545.055-.683-.184-8.011-13.95-17.087-21.866-27.632-25.204-8.185-2.591-16.104-2.475-28.71-.496-.274.043-.53-.143-.572-.416-.043-.273.143-.529.416-.572z" transform="translate(-26 -653) translate(28 653) matrix(1 0 0 -1 0 141.91)"/>
                <path fill="#1D1D1F" fill-rule="nonzero" d="M75.009 55.876c10.86-1.77 15.597 1.837 12.986 8.024-.108.255-.401.374-.655.267-.255-.108-.374-.401-.267-.655 2.24-5.305-1.708-8.31-11.903-6.649l-3.305.546c-.72.12-1.43.24-2.13.36-.272.047-.53-.136-.577-.409-.046-.272.137-.53.41-.577l2.132-.36c1.08-.181 2.184-.364 3.309-.547z" transform="translate(-26 -653) translate(28 653) matrix(1 0 0 -1 0 119.632)"/>
                <path fill="#1D1D1F" fill-rule="nonzero" d="M82.828 55.643c7.943-1.23 12.8-.034 14.847 3.292 1.693 2.753 1.319 6.751-.629 11.468-.105.255-.398.376-.653.27-.255-.105-.377-.397-.271-.652 1.837-4.45 2.184-8.152.701-10.562-1.786-2.903-6.253-4.002-13.841-2.828l-2.453.39c-2.845.46-5.661.934-8.744 1.47-.272.048-.531-.134-.579-.406-.047-.272.135-.531.407-.578l2.588-.447c2.959-.506 5.736-.963 8.627-1.417z" transform="translate(-26 -653) translate(28 653) matrix(1 0 0 -1 0 125.882)"/>
                <path fill="#1D1D1F" fill-rule="nonzero" d="M74.555 59.29c-.266.043-.523-.143-.566-.415-.038-.243.105-.472.329-.55l.096-.024 6.584-1.042 1.484-.23c.963-.147 1.88-.284 2.78-.416 9.009-1.317 14.499-.224 18.308 3.53l.303.306c2.936 3.03 4.523 6.768 7.93 17.199.085.262-.058.544-.32.63-.263.086-.546-.057-.631-.32l-.816-2.47c-2.912-8.72-4.44-11.943-7.168-14.633-3.481-3.43-8.537-4.488-16.97-3.322l-.491.07c-1.123.164-2.27.337-3.504.527l-7.348 1.16z" transform="translate(-26 -653) translate(28 653) matrix(1 0 0 -1 0 134.381)"/>
            </g>
        </g>
    </g>
</svg>
