<svg xmlns="http://www.w3.org/2000/svg" width="660" height="515" viewBox="0 0 660 515">
    <g fill="none" fill-rule="evenodd">
        <path fill="#11AA59" fill-rule="nonzero" d="M55.5 204.916L55.5 401.158 54.5 401.158 54.5 204.916z" transform="translate(2)"/>
        <path fill="#E57171" fill-rule="nonzero" d="M97.5 354.537L97.5 464.042 96.5 464.042 96.5 354.537z" transform="translate(2)"/>
        <path fill="#11AA59" fill-rule="nonzero" d="M139.5 276.474L139.5 441.538 138.5 441.538 138.5 276.474z" transform="translate(2)"/>
        <path fill="#E57171" fill-rule="nonzero" d="M181.5 223.347L181.5 376.221 180.5 376.221 180.5 223.347z" transform="translate(2)"/>
        <path fill="#11AA59" fill-rule="nonzero" d="M223.5 272.137L223.5 457.537 222.5 457.537 222.5 272.137z" transform="translate(2)"/>
        <path fill="#E57171" fill-rule="nonzero" d="M265.5 288.4L265.5 473.8 264.5 473.8 264.5 288.4z" transform="translate(2)"/>
        <path fill="#11AA59" fill-rule="nonzero" d="M307.5 210.337L307.5 515 306.5 515 306.5 210.337zM349.5 169.679L349.5 299.784 348.5 299.784 348.5 169.679zM391.5 120.347L391.5 346.947 390.5 346.947 390.5 120.347zM433.5 78.063L433.5 262.166 432.5 262.166 432.5 78.063zM475.5 97.579L475.5 443.442 474.5 443.442 474.5 97.579z" transform="translate(2)"/>
        <path fill="#E57171" fill-rule="nonzero" d="M517.5 248.284L517.5 384.895 516.5 384.895 516.5 248.284z" transform="translate(2)"/>
        <path fill="#11AA59" fill-rule="nonzero" d="M559.5 126.853L559.5 363 558.5 363 558.5 126.853zM601.5 233.647L601.5 350.2 600.5 350.2 600.5 233.647zM643.5 0L643.5 299.242 642.5 299.242 642.5 0z" transform="translate(2)"/>
        <path fill="#FFF" stroke="#11AA59" stroke-linecap="round" stroke-width="3" d="M210 314.421H236V451.032H210zM126 331.768H152V419.58899999999994H126z" transform="translate(2)"/>
        <path fill="#FFF" stroke="#E57171" stroke-linecap="round" stroke-width="3" d="M168 294.905H194V350.2H168z" transform="translate(2)"/>
        <path fill="#FFF" stroke="#11AA59" stroke-linecap="round" stroke-width="3" d="M294 223.347H320V442.358H294zM336 207.084H362V274.305H336zM420 121.432H446V225.51600000000002H420zM462 198.411H488V323.095H462zM546 259.126H572V346.947H546zM588 248.284H614V265.631H588zM630 152.874H656V255.874H630zM378 133.358H404V267.8H378z" transform="translate(2)"/>
        <path fill="#FFF" stroke="#E57171" stroke-linecap="round" stroke-width="3" d="M252 344.779H278V357.79H252zM504 287.316H530V355.621H504zM84 378.389H110V413.084H84z" transform="translate(2)"/>
        <path fill="#FFF" stroke="#11AA59" stroke-linecap="round" stroke-width="3" d="M42 234.189H68V390.315H42z" transform="translate(2)"/>
        <path fill="#11AA59" fill-rule="nonzero" d="M13.5 166L13.5 358.332 12.5 358.332 12.5 166z" transform="translate(2)"/>
        <path fill="#FFF" stroke="#11AA59" stroke-linecap="round" stroke-width="3" d="M0 189.737H26V314.421H0z" transform="translate(2)"/>
    </g>
</svg>
