<svg xmlns="http://www.w3.org/2000/svg" width="21" height="73" viewBox="0 0 21 73">
    <g fill="none" fill-rule="evenodd">
        <g fill-rule="nonzero">
            <g>
                <path fill="#1D1D1F" d="M10.5 0C4.701 0 0 4.701 0 10.5S4.701 21 10.5 21 21 16.299 21 10.5 16.299 0 10.5 0zm0 4c3.59 0 6.5 2.91 6.5 6.5S14.09 17 10.5 17 4 14.09 4 10.5 6.91 4 10.5 4z" transform="translate(-356 -921) translate(356 921)"/>
                <path fill="#000" d="M10.5 29.313c.513 0 .936.386.993.884l.007.116V71.7c0 .553-.448 1-1 1-.513 0-.936-.386-.993-.883L9.5 71.7V30.313c0-.552.448-1 1-1z" opacity=".3" transform="translate(-356 -921) translate(356 921)"/>
            </g>
        </g>
    </g>
</svg>
