<svg xmlns="http://www.w3.org/2000/svg" width="18" height="68" viewBox="0 0 18 68">
    <g fill="none" fill-rule="evenodd">
        <g fill-rule="nonzero">
            <g>
                <g>
                    <path fill="#E57171" d="M9 0C4.03 0 0 4.03 0 9s4.03 9 9 9 9-4.03 9-9-4.03-9-9-9zm0 4c2.761 0 5 2.239 5 5s-2.239 5-5 5-5-2.239-5-5 2.239-5 5-5z" transform="translate(-759 -860) translate(759 860)"/>
                    <path fill="#000" d="M9 24c.513 0 .936.386.993.883L10 25v41.387c0 .552-.448 1-1 1-.513 0-.936-.386-.993-.884L8 66.387V25c0-.552.448-1 1-1z" opacity=".3" transform="translate(-759 -860) translate(759 860)"/>
                </g>
            </g>
        </g>
    </g>
</svg>
