<svg width="392" height="392" viewBox="0 0 392 392" fill="none" xmlns="http://www.w3.org/2000/svg">
<circle cx="196" cy="196" r="195" fill="white" stroke="black" stroke-width="2"/>
<path d="M271.351 98.2294C278.952 104.01 285.802 110.75 292.072 118.148L204.864 227.512L151.525 211.037L142.32 176.684L195.361 192.987L271.351 98.2294Z" fill="#66BE87"/>
<path d="M104.526 221.113C104.085 219.466 103.707 218.054 103.501 216.344L75.5927 222.309C76.0971 224.191 76.4292 226.372 76.9336 228.254C85.7603 261.195 107.179 287.484 134.627 303.331L148.923 278.569C127.804 266.574 111.335 246.525 104.526 221.113Z" fill="#66BE87"/>
<path d="M171.691 104.761C173.338 104.32 174.75 103.941 176.46 103.735L170.495 75.8273C168.613 76.3317 166.432 76.6638 164.55 77.1682C131.608 85.9948 105.319 107.414 89.4722 134.861L114.235 149.158C126.229 128.039 146.514 111.507 171.691 104.761Z" fill="#66BE87"/>
<path d="M220.882 288.287C219.235 288.728 217.823 289.107 216.113 289.313L222.078 317.221C223.96 316.716 226.141 316.384 228.023 315.88C260.965 307.053 287.254 285.634 303.1 258.187L278.338 243.89C266.407 265.245 246.294 281.478 220.882 288.287Z" fill="#66BE87"/>
<path d="M227.752 106.886L246.444 83.4676C221.56 72.4819 192.731 69.3625 164.26 76.9912L171.636 104.521C190.994 99.5863 210.452 100.677 227.752 106.886Z" fill="#66BE87"/>
<path d="M315.808 164.496C313.853 157.202 311.256 150.332 308.188 143.588L287.648 169.52C287.837 170.225 288.089 171.167 288.278 171.873C295.529 198.932 290.258 226.32 276.146 248.006L300.219 263.496C318.419 235.418 325.202 199.555 315.808 164.496Z" fill="#66BE87"/>
<path d="M220.856 288.294C193.797 295.544 166.41 290.273 144.723 276.161L129.233 300.235C157.609 318.607 193.174 325.218 228.233 315.824L220.856 288.294Z" fill="#66BE87"/>
<path d="M116.653 144.979L92.5796 129.489C74.2075 157.865 67.5969 193.43 76.991 228.489L104.521 221.112C97.3332 194.289 102.541 166.665 116.653 144.979Z" fill="#66BE87"/>
</svg>
