<svg xmlns="http://www.w3.org/2000/svg" width="474" height="474" viewBox="0 0 474 474">
    <g fill="none" fill-rule="evenodd" transform="translate(1 1)">
        <circle cx="236" cy="236" r="236" fill="#FFF" stroke="#000" stroke-linecap="round" stroke-linejoin="round" stroke-width="2"/>
        <path fill="#08A651" d="M187.802 208.54l74.86-74.1c-4.144-1.01-8.616-1.93-13-2.522l-65.215 64.098-39.376-10.289c-1.593 3.253-3.098 6.835-4.602 10.417l47.333 12.395zm97.118-65.075c-3.334-1.948-6.907-3.476-10.48-5.004l-82.973 82.599-54.091-14.27c-.841 3.422-1.593 7.174-2.345 10.927l59.393 15.689 90.496-89.941zm-86.705 101.533l-63.907-16.854c-.01 3.896-.109 7.462.297 11.6l66.884 17.473 102.256-101.02c-2.763-2.444-5.855-4.801-8.858-6.828l-96.672 95.63zm135.132-39.805c14.52 54.191-17.728 109.867-72.245 124.475-54.188 14.52-110.283-17.485-124.804-71.675-.623-2.328-1.158-4.322-1.453-6.738l68.619 18.316 106.691-106.267c10.878 11.694 18.916 25.931 23.192 41.89z"/>
    </g>
</svg>
