<svg xmlns="http://www.w3.org/2000/svg" xmlns:xlink="http://www.w3.org/1999/xlink" width="225" height="34" viewBox="0 0 225 34">
    <defs>
        <path id="rwq5y8kzwa" d="M10.746 10.194L26.54 1.019C25.895.66 25.19.3 24.486 0l-13.74 7.915-6.107-3.538c-.411.48-.822 1.02-1.233 1.56l7.34 4.257zm19.083-6.656c-.47-.48-.998-.9-1.527-1.32L10.746 12.414 2.349 7.556c-.294.54-.587 1.139-.881 1.739l9.219 5.336L29.829 3.538zM10.746 16.85L.822 11.093c-.176.66-.352 1.26-.47 1.98l10.394 5.996L32.354 6.596c-.352-.54-.763-1.08-1.174-1.559L10.746 16.85zm24.485-.54c0 9.775-7.868 17.69-17.615 17.69C7.927 34 0 26.085 0 16.31c0-.42 0-.78.059-1.199l10.628 6.176L33.235 8.215c1.292 2.459 1.996 5.217 1.996 8.095z"/>
    </defs>
    <g fill="none" fill-rule="evenodd">
        <path fill="#1D1D1F" fill-rule="nonzero" d="M58.886 27.264c1.188 0 2.196-.136 3.025-.407.829-.271 1.5-.634 2.013-1.089.513-.455.884-.975 1.111-1.562.227-.587.341-1.195.341-1.826 0-.777-.125-1.43-.374-1.958-.25-.528-.576-.968-.979-1.32-.403-.352-.862-.63-1.375-.836-.513-.205-1.038-.37-1.573-.495-.535-.125-1.06-.231-1.573-.319-.513-.088-.972-.19-1.375-.308-.403-.117-.73-.271-.979-.462-.25-.19-.374-.447-.374-.77 0-.396.205-.708.616-.935.41-.227 1.137-.341 2.178-.341.572 0 1.107.066 1.606.198.499.132.964.315 1.397.55.433.235.818.499 1.155.792.337.293.63.601.88.924v-4.554c-.528-.308-1.214-.587-2.057-.836-.843-.25-1.837-.374-2.981-.374-2.141 0-3.729.407-4.763 1.221-1.034.814-1.551 1.94-1.551 3.377 0 .836.125 1.529.374 2.079.25.55.572 1.001.968 1.353.396.352.85.623 1.364.814.513.19 1.041.345 1.584.462.543.117 1.07.213 1.584.286.513.073.968.169 1.364.286.396.117.719.275.968.473.25.198.374.473.374.825 0 .425-.22.774-.66 1.045-.44.271-1.217.407-2.332.407-1.276 0-2.383-.224-3.322-.671-.939-.447-1.657-1.045-2.156-1.793v3.916c.205.235.488.462.847.682.36.22.777.418 1.254.594s1.005.315 1.584.418c.58.103 1.192.154 1.837.154zM75.21 27c.924 0 1.756-.084 2.497-.253.74-.169 1.371-.433 1.892-.792.52-.36.92-.825 1.199-1.397.279-.572.418-1.254.418-2.046 0-1.965-.858-3.146-2.574-3.542.748-.352 1.287-.807 1.617-1.364.33-.557.495-1.247.495-2.068 0-1.247-.436-2.215-1.309-2.904-.873-.69-2.262-1.034-4.169-1.034h-6.952V27h6.886zm-.22-9.174h-3.146V14.9h3.234c.777 0 1.331.125 1.661.374.33.25.495.594.495 1.034 0 .455-.176.821-.528 1.1-.352.279-.924.418-1.716.418zm.308 5.874h-3.454v-3.146h3.454c.88 0 1.496.136 1.848.407.352.271.528.649.528 1.133 0 .528-.176.928-.528 1.199-.352.271-.968.407-1.848.407zM94.966 27v-3.3H87.42v-2.97h6.49v-3.3h-6.49V14.9h7.304v-3.3H83.9V27h11.066zm6.578 0v-4.312h1.969c.227 0 .451-.015.671-.044L106.758 27h4.092l-3.344-5.236c1.745-.924 2.618-2.508 2.618-4.752 0-.865-.128-1.635-.385-2.31s-.675-1.243-1.254-1.705c-.58-.462-1.335-.81-2.266-1.045-.931-.235-2.072-.352-3.421-.352h-4.774V27h3.52zm1.694-7.612h-1.694V14.9h1.87c1.1 0 1.888.172 2.365.517.477.345.715.884.715 1.617 0 .807-.264 1.4-.792 1.782-.528.381-1.35.572-2.464.572zM120.222 27c.924 0 1.756-.084 2.497-.253.74-.169 1.371-.433 1.892-.792.52-.36.92-.825 1.199-1.397.279-.572.418-1.254.418-2.046 0-1.965-.858-3.146-2.574-3.542.748-.352 1.287-.807 1.617-1.364.33-.557.495-1.247.495-2.068 0-1.247-.436-2.215-1.309-2.904-.873-.69-2.262-1.034-4.169-1.034h-6.952V27h6.886zm-.22-9.174h-3.146V14.9h3.234c.777 0 1.331.125 1.661.374.33.25.495.594.495 1.034 0 .455-.176.821-.528 1.1-.352.279-.924.418-1.716.418zm.308 5.874h-3.454v-3.146h3.454c.88 0 1.496.136 1.848.407.352.271.528.649.528 1.133 0 .528-.176.928-.528 1.199-.352.271-.968.407-1.848.407zm10.516 3.3l1.232-3.146h6.6l1.21 3.146h3.718l-6.226-15.4h-3.894l-6.16 15.4h3.52zm6.556-6.446h-4.026l2.024-5.17 2.002 5.17zM149.13 27V16.99L156.06 27h4.07V11.6h-3.52v10.054L149.658 11.6h-4.048V27h3.52zm18.15 0v-6.27h2.222l4.576 6.27h4.444l-6.182-8.184 5.148-7.216h-4.18l-4.004 6.116h-2.024V11.6h-3.52V27h3.52zM196.108 27.22c.675 0 1.309-.062 1.903-.187.594-.125 1.13-.282 1.606-.473.477-.19.891-.403 1.243-.638.352-.235.623-.47.814-.704v-2.86c-.22.41-.506.803-.858 1.177s-.766.704-1.243.99c-.477.286-1.012.513-1.606.682-.594.169-1.243.253-1.947.253-.953-.015-1.797-.183-2.53-.506-.733-.323-1.346-.759-1.837-1.309-.491-.55-.862-1.195-1.111-1.936-.25-.74-.374-1.544-.374-2.409 0-.924.14-1.764.418-2.519.279-.755.675-1.404 1.188-1.947.513-.543 1.14-.96 1.881-1.254.74-.293 1.573-.44 2.497-.44.572 0 1.122.084 1.65.253.528.169 1.012.389 1.452.66.44.271.829.58 1.166.924.337.345.616.7.836 1.067v-3.102c-.176-.176-.425-.356-.748-.539-.323-.183-.7-.352-1.133-.506-.433-.154-.92-.279-1.463-.374-.543-.095-1.13-.143-1.76-.143-1.261 0-2.387.198-3.377.594-.99.396-1.833.946-2.53 1.65-.697.704-1.228 1.536-1.595 2.497-.367.96-.55 2.013-.55 3.157 0 1.217.187 2.317.561 3.3.374.983.906 1.815 1.595 2.497.69.682 1.529 1.21 2.519 1.584.99.374 2.101.561 3.333.561zm10.626-.22V11.6h-1.98V27h1.98zm10.098 0c.939 0 1.786-.084 2.541-.253.755-.169 1.39-.433 1.903-.792.513-.36.91-.825 1.188-1.397.279-.572.418-1.254.418-2.046 0-1.012-.231-1.822-.693-2.431-.462-.609-1.206-.979-2.233-1.111 1.643-.528 2.464-1.738 2.464-3.63 0-.66-.114-1.225-.341-1.694-.227-.47-.554-.854-.979-1.155-.425-.3-.939-.524-1.54-.671-.601-.147-1.283-.22-2.046-.22h-6.38V27h5.698zm.176-8.602h-3.894V13.36h3.96c1.173 0 2.028.194 2.563.583.535.389.803.979.803 1.771 0 .44-.092.825-.275 1.155-.183.33-.429.609-.737.836-.308.227-.671.4-1.089.517-.418.117-.862.176-1.331.176zm.11 6.842h-4.004v-5.258h4.07c.543 0 1.038.04 1.485.121.447.08.836.22 1.166.418.33.198.587.458.77.781.183.323.275.733.275 1.232 0 .953-.323 1.643-.968 2.068-.645.425-1.577.638-2.794.638z"/>
        <use fill="#08A651" xlink:href="#rwq5y8kzwa"/>
    </g>
</svg>
