<svg width="142" height="28" viewBox="0 0 142 28" fill="none" xmlns="http://www.w3.org/2000/svg">
<g clip-path="url(#clip0)">
<path d="M44.606 12.6367C42.6529 12.1752 40.9799 11.7715 40.9799 10.4088C40.9799 8.57746 43.2238 8.37918 44.1896 8.37918C45.2552 8.34104 46.3139 8.56505 47.2736 9.03168L49.9591 7.04894C48.2278 5.98726 46.2432 5.41436 44.2147 5.39064C39.1309 5.38343 37.3358 8.08357 37.3358 10.6143C37.3358 14.2553 40.4773 15.0124 43.2705 15.6829C45.2236 16.1552 46.9146 16.5589 46.9146 17.9468C46.9146 18.6678 46.4909 19.8539 43.6582 19.8539C41.7236 19.8363 39.8397 19.2305 38.2549 18.1163L37.0234 20.9462C38.5134 22.1142 41.0984 22.8641 43.6331 22.8641C47.8301 22.8641 50.5407 20.82 50.5407 17.6584C50.5443 14.057 47.3885 13.3108 44.606 12.6367Z" fill="#21A038"/>
<path d="M65.9182 13.8587L65.7459 13.801L65.9039 13.7145C66.5715 13.3658 67.1278 12.8352 67.5088 12.1835C67.8898 11.5318 68.0802 10.7855 68.058 10.0302C68.058 7.30481 65.771 5.67896 61.9007 5.67896H53.916V22.5756H62.3567C66.5573 22.5756 68.8658 20.9497 68.8658 18.0008C68.9076 17.0787 68.6398 16.1691 68.1053 15.418C67.5708 14.6669 66.8006 14.1178 65.9182 13.8587ZM57.5565 8.49085H61.4268C63.8646 8.49085 64.3744 9.61922 64.3744 10.5565C64.3744 11.9156 63.3548 12.6222 61.4268 12.6222H57.5565V8.49085ZM57.5565 12.6186H61.4268H57.5565ZM62.0838 19.7565H57.5565V15.4305H62.0838C64.1518 15.4305 65.2002 16.1515 65.2002 17.5935C65.2002 19.0355 64.1805 19.7565 62.0838 19.7565Z" fill="#21A038"/>
<path d="M81.1757 8.49085L84.9777 5.67896H72.2539V22.5756H84.9777V19.7601H75.8872V15.4341H83.6386V12.6222H75.8872V8.49085H81.1757Z" fill="#21A038"/>
<path d="M102.706 22.5756L99.0113 17.0852C101.187 16.1299 102.447 14.2481 102.447 11.7246C102.447 7.99702 99.7007 5.68262 95.2667 5.68262H88.3555V22.5756H91.9816V17.7882H95.6078L98.8139 22.5756H102.706ZM91.9888 8.49451H95.22C97.5465 8.49451 98.8282 9.64451 98.8282 11.739C98.8282 13.8335 97.5465 14.9835 95.22 14.9835H91.9888V8.49451Z" fill="#21A038"/>
<path d="M121.807 21.2562C121.621 21.4757 121.403 21.6664 121.161 21.8222C120.845 22.0281 120.51 22.2008 120.159 22.3377C118.403 23.0238 116.459 23.0506 114.684 22.4134C113.932 22.1379 113.248 21.704 112.677 21.1409C112.109 20.5712 111.673 19.8833 111.399 19.1257C111.087 18.2814 110.93 17.3873 110.936 16.4868C110.927 15.6256 111.077 14.7701 111.377 13.9633C111.656 13.2116 112.089 12.5273 112.648 11.9554C113.225 11.379 113.915 10.9286 114.673 10.6323C115.541 10.2893 116.466 10.1191 117.398 10.1312C117.87 10.1283 118.341 10.1669 118.806 10.2466C119.204 10.3118 119.595 10.4119 119.976 10.5458C120.293 10.6602 120.6 10.8026 120.892 10.9712C121.11 11.0875 121.312 11.233 121.491 11.4038V13.884C121.301 13.5728 121.076 13.2848 120.82 13.026C120.54 12.7413 120.226 12.4919 119.886 12.2834C119.523 12.0598 119.133 11.8818 118.727 11.7535C118.297 11.6166 117.849 11.5497 117.398 11.5552C116.715 11.5474 116.036 11.6697 115.399 11.9157C114.828 12.1371 114.315 12.4831 113.894 12.9287C113.474 13.3799 113.151 13.9139 112.946 14.4969C112.716 15.1456 112.603 15.8305 112.613 16.5193C112.606 17.1778 112.706 17.833 112.911 18.4588C113.103 19.0287 113.408 19.5535 113.808 20.0017C114.216 20.4537 114.717 20.8116 115.276 21.0508C115.919 21.321 116.609 21.4583 117.305 21.4545C117.831 21.458 118.356 21.3889 118.863 21.249C119.313 21.1229 119.745 20.9387 120.148 20.7011C120.509 20.4817 120.839 20.215 121.129 19.908C121.399 19.6237 121.631 19.3049 121.818 18.9599L121.807 21.2562Z" fill="#21A038"/>
<path d="M125.96 22.6874H124.377V10.3079H125.96V22.6874Z" fill="#21A038"/>
<path d="M129.605 22.6874V10.3078H134.704C135.254 10.2998 135.804 10.3591 136.341 10.4845C136.781 10.5848 137.197 10.7683 137.569 11.0252C137.906 11.261 138.177 11.5801 138.355 11.9517C138.545 12.38 138.639 12.8455 138.628 13.3144C138.628 14.8333 137.971 15.8043 136.657 16.2272C137.001 16.2447 137.338 16.333 137.647 16.4869C137.956 16.6407 138.23 16.8566 138.452 17.1213C138.846 17.6882 139.042 18.3703 139.008 19.0608C139.023 19.6275 138.907 20.1899 138.671 20.7047C138.456 21.1548 138.128 21.5411 137.719 21.8258C137.259 22.1356 136.743 22.3523 136.201 22.4639C135.533 22.6049 134.851 22.6726 134.169 22.6658L129.605 22.6874ZM134.305 15.7802C134.669 15.7837 135.032 15.7351 135.382 15.636C135.696 15.5529 135.992 15.4124 136.255 15.2215C136.501 15.045 136.706 14.816 136.854 14.5509C137.005 14.2645 137.081 13.9447 137.077 13.6208C137.095 13.3488 137.046 13.0765 136.933 12.8285C136.82 12.5805 136.647 12.3646 136.431 12.2005C136.002 11.888 135.319 11.7318 134.38 11.7318H131.185V15.7802H134.305ZM134.388 21.2887C135.167 21.3366 135.943 21.1589 136.624 20.7768C136.887 20.5922 137.097 20.3416 137.233 20.0499C137.37 19.7582 137.427 19.4358 137.4 19.1149C137.414 18.772 137.339 18.4314 137.181 18.1271C137.033 17.8677 136.82 17.6516 136.563 17.4998C136.277 17.3316 135.961 17.2179 135.633 17.1645C135.24 17.0962 134.841 17.0636 134.442 17.0672H131.185V21.2887H134.388Z" fill="#21A038"/>
<path d="M25.0778 5.46191C25.7399 6.31709 26.2916 7.25502 26.7606 8.24812L14.0158 17.655L8.66406 14.2895V10.2619L13.9882 13.5998L25.0778 5.46191Z" fill="#21A038"/>
<path d="M3.22758 14.0139C3.22758 13.8208 3.22758 13.6552 3.25517 13.4621L0.0275858 13.2966C0.0275858 13.5173 0 13.7656 0 13.9863C0 17.8484 1.57241 21.3518 4.11034 23.8897L6.4 21.6001C4.44138 19.669 3.22758 16.9932 3.22758 14.0139Z" fill="url(#paint0_linear)"/>
<path d="M13.9852 3.25542C14.1783 3.25542 14.3439 3.25542 14.537 3.283L14.7025 0.0554178C14.4818 0.0554178 14.2335 0.027832 14.0128 0.027832C10.1508 0.027832 6.6473 1.60024 4.10938 4.13817L6.39903 6.42783C8.33006 4.46921 11.0335 3.25542 13.9852 3.25542Z" fill="url(#paint1_linear)"/>
<path d="M13.9868 24.7728C13.7937 24.7728 13.6282 24.7728 13.4351 24.7452L13.2695 27.9728C13.4902 27.9728 13.7385 28.0003 13.9592 28.0003C17.8213 28.0003 21.3247 26.4279 23.8626 23.89L21.573 21.6003C19.6419 23.5865 16.9661 24.7728 13.9868 24.7728Z" fill="url(#paint2_linear)"/>
<path d="M20.0553 5.13103L22.7863 3.11724C20.3863 1.18621 17.3243 0 13.9863 0V3.22759C16.2484 3.25517 18.3449 3.94483 20.0553 5.13103Z" fill="url(#paint3_linear)"/>
<path d="M27.9991 14.0138C27.9991 13.1586 27.9163 12.331 27.7784 11.5034L24.7715 13.7379C24.7715 13.8207 24.7715 13.931 24.7715 14.0138C24.7715 17.1862 23.3922 20.0276 21.2129 21.9862L23.3922 24.3862C26.206 21.8482 27.9991 18.1241 27.9991 14.0138Z" fill="#21A038"/>
<path d="M13.9837 24.7722C10.8113 24.7722 7.96995 23.3929 6.01133 21.2136L3.61133 23.3929C6.17684 26.2343 9.87339 27.9998 13.9837 27.9998V24.7722Z" fill="url(#paint4_linear)"/>
<path d="M6.7862 6.04136L4.60689 3.64136C1.76552 6.20687 0 9.90342 0 14.0138H3.22758C3.22758 10.8689 4.60689 7.99998 6.7862 6.04136Z" fill="url(#paint5_linear)"/>
</g>
<defs>
<linearGradient id="paint0_linear" x1="4.77426" y1="23.497" x2="1.24005" y2="13.2811" gradientUnits="userSpaceOnUse">
<stop offset="0.1444" stop-color="#F2E913"/>
<stop offset="0.3037" stop-color="#E7E518"/>
<stop offset="0.5823" stop-color="#CADB26"/>
<stop offset="0.891" stop-color="#A3CD39"/>
</linearGradient>
<linearGradient id="paint1_linear" x1="5.0294" y1="4.70135" x2="14.132" y2="1.23249" gradientUnits="userSpaceOnUse">
<stop offset="0.0592" stop-color="#0FA8E0"/>
<stop offset="0.5385" stop-color="#0099F9"/>
<stop offset="0.9234" stop-color="#0291EB"/>
</linearGradient>
<linearGradient id="paint2_linear" x1="13.08" y1="26.0283" x2="23.3735" y2="23.7018" gradientUnits="userSpaceOnUse">
<stop offset="0.1226" stop-color="#A3CD39"/>
<stop offset="0.2846" stop-color="#86C339"/>
<stop offset="0.8693" stop-color="#21A038"/>
</linearGradient>
<linearGradient id="paint3_linear" x1="13.3232" y1="1.08877" x2="22.1239" y2="3.80419" gradientUnits="userSpaceOnUse">
<stop offset="0.0566" stop-color="#0291EB"/>
<stop offset="0.79" stop-color="#0C8ACB"/>
</linearGradient>
<linearGradient id="paint4_linear" x1="4.43199" y1="22.9906" x2="14.0117" y2="26.5699" gradientUnits="userSpaceOnUse">
<stop offset="0.1324" stop-color="#F2E913"/>
<stop offset="0.2977" stop-color="#EBE716"/>
<stop offset="0.5306" stop-color="#D9E01F"/>
<stop offset="0.8023" stop-color="#BBD62D"/>
<stop offset="0.9829" stop-color="#A3CD39"/>
</linearGradient>
<linearGradient id="paint5_linear" x1="1.21062" y1="14.4036" x2="5.05597" y2="4.40045" gradientUnits="userSpaceOnUse">
<stop offset="0.0698" stop-color="#A3CD39"/>
<stop offset="0.2599" stop-color="#81C55F"/>
<stop offset="0.9216" stop-color="#0FA8E0"/>
</linearGradient>
<clipPath id="clip0">
<rect width="142" height="28" fill="white"/>
</clipPath>
</defs>
</svg>
