<svg xmlns="http://www.w3.org/2000/svg" width="77" height="78" viewBox="0 0 77 78">
    <g fill="none" fill-rule="evenodd">
        <g>
            <g transform="translate(-464 -979) translate(464 979)">
                <path fill="#080808" d="M36.349 77.215c-1.22-.245-2.433-.56-3.634-.944l-12.487-7.21c-.934-.848-1.813-1.741-2.635-2.675L36.35 77.215zM43.687 77.867c-.677.014-1.355.007-2.034-.02L14.393 62.11c-.363-.574-.707-1.159-1.034-1.752l30.328 17.51zM48.982 77.34c-.523.093-1.049.175-1.576.244L11.745 56.995c-.204-.49-.396-.987-.576-1.487L48.982 77.34zM53.323 76.262c-.438.14-.879.27-1.322.392L10.252 52.551c-.116-.445-.223-.892-.32-1.341l43.39 25.052zM57.046 74.828c-.378.172-.76.336-1.144.494L9.456 48.506c-.056-.411-.104-.824-.144-1.238l47.734 27.56zM60.308 73.127c-.333.197-.668.388-1.007.574L9.161 44.75c-.01-.385-.012-.771-.007-1.158l51.154 29.534zM63.194 71.21c-.295.218-.592.431-.893.64L9.264 41.227c.03-.364.065-.728.107-1.092L63.194 71.21zM65.758 69.106c-.261.237-.525.47-.793.697L9.705 37.898c.062-.346.131-.69.206-1.035l55.847 32.243zM68.034 66.835c-.231.254-.466.504-.704.75L10.442 34.74c.094-.33.193-.657.297-.984l57.295 33.078zM70.043 64.411c-.203.27-.41.536-.62.798l-57.97-33.47c.123-.312.25-.624.382-.934L70.043 64.41zM71.799 61.842c-.176.285-.356.566-.54.844L12.72 28.888c.15-.297.303-.594.461-.888L71.8 61.842zM73.312 59.131c-.149.298-.303.594-.461.889L14.233 26.177c.176-.285.356-.566.54-.843L73.311 59.13zM74.58 56.279c-.123.312-.25.624-.382.934L15.99 23.607c.203-.27.41-.535.62-.797l57.97 33.469zM75.59 53.278c-.094.329-.193.656-.297.983L18 21.183c.231-.254.466-.504.703-.749L75.59 53.278zM76.328 50.121c-.063.346-.132.69-.206 1.035L20.274 18.913c.261-.237.526-.47.793-.697l55.261 31.905zM76.769 46.79c-.03.365-.066.73-.108 1.094L22.838 16.81c.295-.218.592-.431.893-.64L76.77 46.792zM76.872 43.267c.009.386.011.772.007 1.159L25.725 14.892c.332-.197.668-.389 1.006-.574l50.14 28.949zM76.577 39.512c.055.411.103.824.143 1.237L28.987 13.191c.379-.172.76-.337 1.144-.495l46.446 26.816zM75.78 35.469c.116.444.223.89.32 1.34L32.71 11.757c.437-.14.878-.27 1.32-.392l41.75 24.104zM74.287 31.022c.204.492.396.988.576 1.488l-37.81-21.83c.522-.095 1.048-.176 1.575-.246l35.66 20.588zM71.64 25.91c.362.574.706 1.158 1.032 1.75L42.346 10.153c.677-.014 1.355-.008 2.033.019L71.64 25.91zM66.271 19.39c.869.818 1.687 1.677 2.454 2.572L49.255 10.72c1.159.217 2.312.496 3.456.839l13.56 7.83z"/>
                <circle cx="33.6" cy="33.6" r="32.6" fill="#FFF" stroke="#000" stroke-width="2"/>
                <path fill="#1D1D1F" fill-rule="nonzero" d="M53.984 19.036c-2.499-3.705-8.646-7.494-10.693-6.113-2.296 1.55-2.742 5.865-.543 9.126 2.378 3.525 7.944 6.388 10.05 4.968 2.508-1.692 3.31-4.832 1.186-7.98z"/>
                <path fill="#FFF" fill-rule="nonzero" d="M53.155 19.596c1.8 2.668 1.154 5.195-.917 6.592-1.514 1.021-6.55-1.57-8.661-4.699-1.91-2.832-1.53-6.52.273-7.737 1.41-.95 7.08 2.544 9.305 5.844z"/>
                <path fill="#1D1D1F" fill-rule="nonzero" d="M26.394 1.507c.175-.213.49-.245.704-.07.213.175.244.49.07.704-1.734 2.116-2.856 4.628-3.368 7.545-1.648 9.383 2.563 15.343 15.283 19.134l.437.128c5.18 1.5 8.188 3.591 11.56 7.367l.738.844.732.85c3.782 4.396 6.281 6.168 11.55 7.202.27.053.447.316.394.586-.053.271-.316.448-.587.395-5.388-1.057-8.065-2.886-11.824-7.194l-1.437-1.665c-3.286-3.754-6.092-5.81-10.943-7.288l-.46-.136C25.716 25.99 21.054 19.537 22.814 9.514c.541-3.084 1.734-5.755 3.579-8.007zM5.668 15.976c.025-.275.268-.478.544-.453.275.025.477.268.452.543-.451 4.968 1.124 9.14 4.74 12.558 2.885 2.726 6.225 4.45 11.98 6.533l2.137.755 1.803.628.97.345.906.33c6.192 2.293 9.354 4.205 11.638 7.537 3.19 4.655 3.404 11.446.26 21.473-.083.264-.363.41-.627.328-.263-.083-.41-.363-.327-.627 3.061-9.763 2.857-16.25-.131-20.608-2.24-3.267-5.462-5.12-12.075-7.499l-3.779-1.323c-6.567-2.31-10.246-4.125-13.441-7.145-3.84-3.629-5.529-8.102-5.05-13.375zM.345 35.901c.092-.26.378-.397.638-.305 7.638 2.694 14.335 7.162 17.697 11.853 3.753 5.235 3.058 10.243-2.612 13.71-.235.143-.543.07-.687-.166-.144-.236-.07-.544.166-.688 5.148-3.147 5.75-7.489 2.32-12.274C14.637 43.525 8.11 39.17.65 36.54c-.26-.092-.397-.378-.305-.638z"/>
            </g>
        </g>
    </g>
</svg>
