<svg xmlns="http://www.w3.org/2000/svg" width="103" height="96" viewBox="0 0 103 96">
    <g fill="none" fill-rule="evenodd">
        <g>
            <g transform="translate(-1005 -843) translate(1005 843)">
                <path fill="#1D1D1F" d="M35.322 88.468c-1.024-.69-2.024-1.427-2.996-2.212L20.202 70.738c-.526-1.132-1-2.28-1.42-3.442l16.54 21.172zm8.51 4.439c-.632-.245-1.258-.504-1.878-.778l-25.12-32.153c-.117-.669-.217-1.339-.302-2.01l27.3 34.94zm6.572 1.964c-.52-.112-1.037-.233-1.553-.363l-32.658-41.8c-.001-.532.006-1.064.024-1.595L50.404 94.87zm5.69.832c-.458-.036-.915-.08-1.371-.13L16.58 46.753c.06-.455.129-.909.204-1.362l39.308 50.312zm5.12.105c-.414.016-.83.026-1.245.03l-42.377-54.24c.105-.402.215-.802.33-1.201l43.293 55.411zm4.699-.437c-.383.057-.765.108-1.148.155L19.055 37.02c.138-.36.28-.719.428-1.076l46.43 59.427zm4.354-.877c-.355.09-.71.177-1.067.258L20.879 32.904c.165-.326.335-.65.509-.973l48.879 62.563zm4.06-1.254c-.332.12-.663.237-.996.349L23.007 29.178c.19-.296.383-.59.58-.882l50.74 64.944zm3.795-1.591c-.31.147-.62.29-.932.43L25.406 25.798c.21-.27.425-.536.643-.8l52.073 66.65zm3.553-1.903c-.289.173-.58.342-.872.507l-52.752-67.52c.231-.243.466-.484.703-.723l52.921 67.736zM85 87.55c-.27.197-.542.39-.816.58L30.93 19.968c.25-.22.504-.437.76-.651L85 87.55zm3.102-2.48c-.25.219-.504.436-.76.65L34.03 17.488c.27-.197.542-.39.816-.58L88.101 85.07zm2.878-2.767c-.231.244-.466.485-.703.724L37.355 15.29c.29-.173.58-.342.872-.507l52.752 67.52zm2.645-3.063c-.21.269-.425.536-.643.8L40.907 13.39c.31-.148.62-.292.932-.432L93.624 79.24zm2.398-3.38c-.19.296-.382.59-.58.882L44.704 11.798c.33-.12.663-.237.996-.349L96.022 75.86zm2.129-3.726c-.166.326-.335.65-.51.972L48.764 10.544c.354-.091.71-.177 1.067-.259l48.32 61.849zm1.823-4.117c-.138.36-.28.72-.428 1.077L53.117 9.667c.382-.057.765-.108 1.148-.155l45.709 58.505zm1.463-4.576c-.104.401-.214.801-.33 1.2L57.815 9.23c.415-.016.83-.026 1.244-.03l42.378 54.24zm1.012-5.156c-.061.456-.13.91-.205 1.363L62.934 9.334c.459.037.916.08 1.372.131l38.143 48.82zm.387-5.955c.002.532-.006 1.064-.024 1.595L68.625 10.167c.52.112 1.038.233 1.553.363l32.658 41.8zm-.64-7.268c.116.669.217 1.339.301 2.01L75.198 12.13c.631.244 1.257.504 1.878.778l25.12 32.153zm-3.522-11.088c.551 1.16 1.046 2.337 1.486 3.528L83.92 16.714c1.048.715 2.07 1.48 3.062 2.295l11.692 14.965z"/>
                <circle cx="43.5" cy="43.5" r="42" fill="#FFF" stroke="#1D1D1F" stroke-width="3"/>
                <path fill="#1D1D1F" fill-rule="nonzero" d="M34.816 1.849c.222-.164.535-.117.7.105.164.222.117.535-.106.7-3.855 2.848-6.055 6.234-6.626 10.172-2.306 15.893 9.195 20.625 30.36 9.904 3.99-2.022 6.042-3.8 6.559-5.533.473-1.585-.281-3.286-2.4-5.659l-.205-.222c-1.6-1.706-7.185-7.032-7.905-7.756-.195-.196-.194-.512.002-.707.195-.195.512-.194.707.001l4.84 4.694c1.366 1.334 2.634 2.59 3.212 3.22l.095.104c2.327 2.607 3.212 4.602 2.612 6.611-.617 2.068-2.851 4.004-7.065 6.139-21.79 11.038-34.247 5.913-31.802-10.94.612-4.216 2.962-7.832 7.022-10.833zM78.081 19.262c.268.068.429.34.36.608-1.967 7.66-5.358 12.71-10.187 15.108-.63.312-1.34.626-2.141.95l-.408.162c-2.596 1.017-18.916 6.045-23.794 7.86-17.029 6.342-26.975 14.134-29.151 25.765-.094.504-.163 1.006-.206 1.507-.024.275-.266.479-.54.455-.276-.023-.48-.265-.456-.54.046-.534.119-1.07.219-1.606 2.233-11.94 12.23-19.885 29.204-26.3l1.067-.395c5.335-1.927 20.333-6.558 23.164-7.628l.128-.05c.945-.37 1.764-.726 2.469-1.076 4.535-2.252 7.762-7.058 9.664-14.46.06-.238.283-.392.52-.375l.088.015zM85.008 40.285c.08-.264.36-.413.625-.332.264.08.412.36.332.624-3.022 9.89-7.994 16.296-14.923 19.172l-1.217.51c-19.723 8.328-31.37 16.76-30.254 25.166.036.274-.157.525-.43.562-.274.036-.525-.156-.562-.43-1.232-9.282 11.127-18.033 32.08-26.731 6.623-2.75 11.408-8.915 14.35-18.541zM13.206 13.806c.11-.254.404-.37.657-.261.254.109.371.403.262.657-1.624 3.77-2.867 7.88-3.727 12.333l-.167.895c-1.642 9.124-4.17 16.276-7.857 22.036-.149.233-.458.3-.69.152-.233-.15-.301-.458-.152-.69 3.503-5.474 5.947-12.258 7.57-20.886l.145-.79c.876-4.87 2.196-9.353 3.96-13.446z"/>
            </g>
        </g>
    </g>
</svg>
