<svg xmlns="http://www.w3.org/2000/svg" width="35" height="44" viewBox="0 0 35 44">
    <g fill="none" fill-rule="evenodd" stroke-linecap="round">
        <g fill="#FFF" stroke="#1D1D1F" stroke-width="2">
            <path d="M184.367 1008v4.351l5.769-1.584 1.604 5.58-7.373 2.025v3.709l5.769-1.583 1.604 5.58-7.373 2.024v16.475l.176-.106c5.04-3.08 7.452-6.71 7.526-10.952l.002-.203H198c0 7.923-5.215 14.143-15.065 18.543l-.32.141-4.177-2.644-.001-19.625-3.833 1.054-1.604-5.58 5.437-1.495V1020l-3.833 1.054-1.604-5.58 5.437-1.494V1008h5.93z" transform="translate(-166 -1009) rotate(-25 185.5 1030)"/>
        </g>
    </g>
</svg>
