<svg xmlns="http://www.w3.org/2000/svg" width="52" height="48" viewBox="0 0 52 48">
    <g fill="none" fill-rule="evenodd">
        <g>
            <g>
                <path fill="#1D1D1F" d="M24.684 5.961l1.165.243 15.453 40.254-1.01.16L24.683 5.961zm-4.624-.966l1.165.243 14.179 36.936-.746-.115c-.128-.02-.259-.038-.391-.057L20.06 4.995zm5.535 22.71l5.33 13.882-1.116-.117-4.662-12.141.448-1.624zm10.072-4.212c.418.096.866.178 1.345.248l-.19-.031 6.719 17.5c-.19.069-.384.136-.582.2l-.368.116-6.924-18.033zm-12.589 8.736l3.43 8.935-1.104-.09-3.277-8.533.951-.312zm-3.777 1.241l2.827 7.358-1.1-.075-2.293-7.096.566-.187zm26.923 6.44L40.18 24.163l.574.071c.186.023.371.049.555.078L47.06 39.3c-.258.212-.537.415-.837.61zm-1.312-14.497c.488.234.95.51 1.388.826l3.292 8.576c-.088.574-.235 1.12-.441 1.64l-4.24-11.042zM15.436 4.029l1.164.243 7.134 18.586L22.83 22l-.504-.024-6.889-17.947zm-3.256-.19l6.902 17.981-1.09-.052-6.775-17.649.963-.28zM8.354 4.951l6.396 16.662-1.09-.052L8.991 9.398l.273-.789-1.233-3.564.323-.094zm-.873 8.809l2.935 7.645-1.09-.052-2.352-6.126.507-1.467zM29.31 6.927l1.164.243 4.337 11.3c-.345.134-.646.28-.902.435L29.309 6.927zm10.496 5.178c.361-.015.715-.024 1.06-.025l2.31 6.015c-.265-.06-.537-.115-.816-.165l-.343-.058-2.211-5.767zm-5.872-4.212l1.164.243 3.674 9.568-.496.037-.539.059-3.803-9.907zm10.203 4.414c.193.03.38.065.558.102l.264.057.534 3.378-1.356-3.537z" transform="translate(-1159 -933) translate(1161 934)"/>
                <path fill="#FFF" stroke="#1D1D1F" stroke-linecap="round" stroke-width="2" d="M25.93 38.97l-1.597-4.387c2.626-1.395 4.315-3.006 5.067-4.833.753-1.827.724-3.853-.086-6.078-.63-1.734-1.488-3.004-2.573-3.81-1.084-.808-2.267-1.352-3.548-1.632-1.281-.281-2.598-.374-3.95-.277-1.353.097-2.609.173-3.767.228-1.159.056-2.163.003-3.012-.156-.849-.16-1.41-.615-1.683-1.366-.132-.362-.182-.725-.15-1.088.032-.363.184-.726.455-1.088.27-.363.686-.719 1.245-1.069s1.312-.698 2.261-1.043c1.502-.547 3.034-.848 4.595-.903 1.562-.056 2.966.07 4.212.379h0l-2.274-6.249c-.878-.032-1.91.043-3.097.226-1.186.183-2.466.48-3.838.891h0l-1.257-3.454L8.03 5.045l1.286 3.532c-2.715 1.398-4.426 2.988-5.136 4.77-.709 1.782-.682 3.721.08 5.817.632 1.734 1.479 3.015 2.542 3.844 1.062.83 2.212 1.385 3.449 1.668 1.237.282 2.514.389 3.832.32 1.318-.07 2.536-.125 3.655-.166 1.12-.041 2.092.03 2.92.212.827.182 1.382.662 1.665 1.438.31.854.198 1.671-.339 2.453-.536.78-1.634 1.474-3.294 2.078-1.107.403-2.162.662-3.164.778-1.003.116-1.93.152-2.78.11-.851-.041-1.619-.143-2.304-.304-.686-.16-1.256-.334-1.712-.52h0l2.36 6.482c1.048.175 2.317.175 3.805 0s3.023-.507 4.606-.995h0l1.526 4.191 4.901-1.784z" transform="translate(-1159 -933) translate(1161 934)"/>
            </g>
        </g>
    </g>
</svg>
