<svg xmlns="http://www.w3.org/2000/svg" width="35" height="45" viewBox="0 0 35 45">
    <g fill="none" fill-rule="evenodd" stroke-linecap="round">
        <g fill="#FFF" stroke="#1D1D1F" stroke-width="2">
            <path d="M829.342 1043.712l.185.237-4.543 3.6-.287-.367c-4.035-5.081-6.909-5.517-10.175-2.114-1.998 2.082-2.14 3.4-.998 5.77l.197.4c.176.346.338.64.688 1.241l.692 1.18c.508.863.948 1.646 1.322 2.376h8.61v5.842h-6.85c.015.256.022.517.022.784 0 2.699-.445 5.252-1.328 7.647l-.029.076.166-.012c.205-.012.41-.02.615-.025l.307-.003c2.032 0 3.524.501 5.608 1.606l.967.522c.188.1.346.183.489.253l.105.052c.735.354 1.114.427 1.494.337 1.187-.28 2.195-1.21 3.066-3.047l.093-.2 5.242 2.437c-1.585 3.498-3.963 5.76-7.089 6.5-1.849.438-3.47.122-5.28-.75-.153-.073-.307-.15-.47-.234l-1.07-.574c-1.455-.788-2.218-1.059-3.155-1.059-2.004 0-4.03.66-6.12 2.034l-.242.162-3.697-4.44c3.065-3.256 4.56-6.969 4.56-11.282 0-.264-.015-.523-.047-.783H807v-5.844h2.785l-.457-.781c-.425-.735-.598-1.062-.884-1.64-2.254-4.554-1.942-8.57 1.943-12.618 5.985-6.237 12.843-5.051 18.955 2.717z" transform="translate(-801 -1035) rotate(23 821 1058)"/>
        </g>
    </g>
</svg>
