<svg xmlns="http://www.w3.org/2000/svg" width="41" height="45" viewBox="0 0 41 45">
    <path fill="#FFF" fill-rule="evenodd" stroke="#1D1D1F" stroke-linecap="round" stroke-width="2" d="M32.432 40.203c1.973-1.14 3.551-2.288 4.736-3.446 1.185-1.158 2.077-2.19 2.675-3.096l-4.452-7.71c-.505 1.066-1.257 2.19-2.257 3.371-1 1.18-2.404 2.294-4.215 3.339-1.681.97-3.26 1.43-4.735 1.375-1.475-.053-2.935-.697-4.38-1.932l8.68-5.012-1.48-5.03-10.428 6.02-1.96-3.394 11.349-6.552-1.356-5.037-11.834 6.832c-.424-1.78-.315-3.31.327-4.585.643-1.277 1.934-2.475 3.874-3.595 1.455-.84 2.769-1.383 3.942-1.629 1.172-.246 2.222-.313 3.149-.202l-2.113-8.027c-2.525-.266-5.792.758-9.801 3.072-4.203 2.427-6.902 5.257-8.096 8.49-1.194 3.233-1.085 7.006.328 11.32l-2.619 1.512 1.405 5.01 3.25-1.877c.154.342.32.687.5 1.036.18.35.373.701.578 1.057.131.226.27.448.417.665l.214.329.202.336-2.183 1.26 1.433 5.057 3.734-2.156c2.984 3.45 6.19 5.458 9.62 6.021 3.429.564 7.261-.377 11.496-2.822z"/>
</svg>
