<svg xmlns="http://www.w3.org/2000/svg" width="42" height="43" viewBox="0 0 42 43">
    <g fill="none" fill-rule="evenodd" stroke-linecap="round">
        <g fill="#FFF" stroke="#1D1D1F" stroke-width="2">
            <path d="M277.48 877.376l2.295-4.923 9.745 4.544 2.58-5.532-9.745-4.544 1.538-3.299 3.451 1.61c2.335 1.088 4.443 1.824 6.324 2.207 1.881.383 3.56.383 5.036 0 1.476-.383 2.787-1.141 3.934-2.275 1.146-1.133 2.177-2.681 3.092-4.644.963-2.064 1.53-3.92 1.702-5.57.172-1.65-.065-3.151-.712-4.503-.646-1.352-1.7-2.605-3.16-3.76-1.459-1.154-3.322-2.26-5.589-3.317l-1.07-.496c-.865-.4-1.662-.762-2.393-1.088l-1.201-.53c-.587-.257-1.155-.5-1.702-.73-.608-.257-1.222-.511-1.841-.763l-.934-.377c-.78-.313-1.618-.659-2.51-1.038l-.543-.232-7.479 16.038-3.146-1.467-2.627 5.634 3.146 1.467-1.538 3.299-3.147-1.467-2.58 5.532 3.147 1.467-2.295 4.923 8.222 3.834zm11.706-18.082l-2.69-1.255 4.355-9.338c.505.153 1.033.347 1.582.583.55.235 1.078.471 1.585.708 2.03.947 3.227 1.958 3.59 3.034.364 1.075.16 2.442-.614 4.1-.773 1.658-1.769 2.666-2.986 3.025-1.15.34-2.648.103-4.492-.708l-.33-.15z" transform="translate(-267 -836)"/>
        </g>
    </g>
</svg>
