<svg xmlns="http://www.w3.org/2000/svg" width="32" height="46" viewBox="0 0 32 46">
    <g fill="none" fill-rule="evenodd" stroke-linecap="round">
        <g fill="#FFF" stroke="#1D1D1F" stroke-width="2">
            <path d="M558.24 880.772V875H581v5.772h-7.482c.524.89.924 1.854 1.197 2.885H581v5.772l-6.127.001c-.738 3.055-2.948 5.417-6.126 7-1.003.5-2.099.916-3.236 1.247l-.457.127 14.592 15.186-4.13 4.01L557 897.73l2.065-4.89c4.086 0 7.829-1.35 9.466-3.41H558.24v-5.772h10.302c-.707-1.181-1.868-2.124-3.546-2.886h-6.756z" transform="translate(-553 -871) rotate(-11 569 896)"/>
        </g>
    </g>
</svg>
