<svg xmlns="http://www.w3.org/2000/svg" width="1593" height="190" viewBox="0 0 1593 190">
    <g fill="none" fill-rule="evenodd">
        <g fill="#1D1D1F">
            <path d="M844.452 878c14.703 0 29.233 9.14 44.968 26.802l.508.573c11.213 12.697 20.455 25.857 38.144 53.392l9.272 14.486c15.602 24.31 23.537 35.857 33.213 47.74l.32.391c14.012 17.15 26.731 27.587 39.292 31.283.12.035.226.09.32.16l-.191-.053c11.287 3.295 22.924 4.11 36.21 1.055 17.922-4.12 36.394-15.03 55.266-34.32l.659-.676c19.557-20.183 35.114-27.253 48.696-23.683 5.567 1.464 10.739 4.67 16.02 9.625l.495.47c3.713 3.554 6.661 6.97 12.078 13.808l3.935 4.99c6.434 8.12 9.95 12.077 14.336 15.806 6.1 5.185 12.114 7.833 18.723 7.833 10.506 0 18.367-2.471 24.789-7.465 5.37-4.176 9.68-9.904 14.9-19.187l.533-.958c1.64-3.005 9.254-17.407 11.974-22.168 5.465-9.566 10.97-17.73 17.567-25.62 9.917-11.858 21.5-19.08 34.695-22.494 13.082-3.383 25.326-3.027 43.54-.156l9.835 1.567c5.344.833 6.323.901 8.346.906h.87c.086 0 .17.011.25.032 10.69-.793 20.49-4.153 30.168-9.946l.658-.397c8.343-5.091 14.945-10.549 26.969-21.727l4.512-4.214c12.064-11.261 18.883-16.955 27.132-21.983 10.684-6.513 21.42-9.872 33.308-9.872 11.515 0 23.334 7.33 36.386 21.483l.713.776c11.46 12.543 20.142 24.965 42.003 58.492l2.925 4.484c17.613 26.94 26.961 40.108 37.891 52.363l.994 1.104c14.378 15.84 27.343 23.98 39.872 23.98.552 0 1 .448 1 1 0 .553-.448 1-1 1-13.376 0-26.938-8.61-41.86-25.197l-.498-.556c-11.018-12.353-20.402-25.57-38.068-52.591l-6.197-9.495c-19.636-30.019-27.946-41.696-38.89-53.62l-.355-.385c-12.71-13.78-24.089-20.838-34.916-20.838-11.499 0-21.881 3.249-32.267 9.58l-.792.487c-7.36 4.578-13.758 9.875-24.288 19.642l-5.672 5.292c-12.484 11.629-19.237 17.24-27.86 22.502-11.686 7.13-23.569 10.822-36.883 10.822-.4 0-.745-.234-.905-.573-1.861-.254-4.618-.69-9.267-1.434l-3.545-.568c-18.452-2.959-30.65-3.375-43.608-.023-12.796 3.31-24.015 10.305-33.662 21.84-6.263 7.49-11.535 15.238-16.74 24.242l-.624 1.087c-2.74 4.797-10.537 19.547-12.032 22.274l-.115.21c-5.498 9.865-10.02 15.945-15.77 20.416-6.788 5.278-15.082 7.886-26.016 7.886-6.972 0-13.29-2.712-19.58-7.94l-.439-.37c-4.686-3.984-8.36-8.167-15.36-17.038l-3.51-4.452c-5.151-6.49-8.013-9.791-11.566-13.193-5.228-5.006-10.269-8.192-15.64-9.604-12.617-3.317-27.347 3.287-46.18 22.552l-.572.587c-19.36 19.979-38.39 31.297-56.914 35.554-13.65 3.138-25.625 2.3-37.218-1.085-.12-.035-.23-.091-.325-.163l.193.056c-12.861-3.785-25.69-14.223-39.715-31.252l-.562-.684c-9.992-12.23-18.02-23.92-34.178-49.113l-7.018-10.972c-18.779-29.31-28.219-42.862-39.704-55.866C872.841 889.049 858.61 880 844.452 880c-13.371 0-25.24 5.864-36.743 17.22l-.507.504c-8.757 8.776-16.065 18.928-27.568 37.253l-8.25 13.225-1.368 2.17c-9.288 14.664-15.854 23.662-23.036 30.836-9.167 9.156-18.417 13.957-28.56 14.102-.1.035-.209.054-.322.054-12.754 0-25.374-4.641-41.653-14.169l-2.759-1.635c-2.928-1.756-5.617-3.44-10.887-6.804l-7.074-4.516c-11.908-7.563-18.596-11.436-26.378-15.03-10.993-5.08-21.016-7.698-30.931-7.698l-.1-.006-.606.005c-7.983.121-16.178 2.6-24.87 7.341-8.947 4.88-18.307 12.05-29.305 22.127l-.72.662c-4.257 3.925-8.7 8.217-14.077 13.565l-9.638 9.679c-3.138 3.162-6.146 6.194-7.269 7.322l-2.368 2.368c-18.993 18.936-31.999 30.45-46.182 39.99-18.829 12.667-36.938 19.287-55.583 19.287-21.429 0-42.83-9.999-65.252-29.007l-.686-.584c-17.84-15.256-35.007-34.665-57.636-63.759l-3.374-4.364c-6.938-9.019-20.735-27.1-23.82-31.088l-2.433-3.135c-8.55-10.978-15.337-19.267-21.715-26.399l-.445-.496c-17.43-19.4-31.104-29.02-43.064-29.02-8.852 0-18.138 4.455-28.552 13.11l-.662.553c-7.253 6.107-13.887 12.999-25.1 25.66l-9.382 10.628c-10.37 11.683-14.83 16.301-21.124 21.84l-1.032.896C93.66 961.066 85.13 965.38 77 965.38c-.552 0-1-.448-1-1s.448-1 1-1c7.688 0 15.978-4.264 25.623-12.646l1.176-1.036c6.76-6.005 11.666-11.279 25.176-26.61l3.42-3.884c12.105-13.708 19-20.902 26.712-27.352l.336-.28c10.739-8.925 20.424-13.572 29.83-13.572 12.586 0 26.483 9.687 44.02 29.093l.532.59c6.693 7.45 13.789 16.119 22.849 27.772l3.49 4.518c5.66 7.372 20.236 26.471 24.791 32.34l2.225 2.857c21.826 27.946 38.556 46.757 55.88 61.57 22.342 19.106 43.541 29.112 64.638 29.112 18.203 0 35.943-6.485 54.467-18.946l1.065-.722c14-9.557 27.056-21.245 46.274-40.477l15.603-15.702 2.222-2.218c5.393-5.365 9.852-9.673 14.131-13.617l1.449-1.327c10.795-9.832 20.06-16.885 28.973-21.747 9.19-5.012 17.901-7.59 26.442-7.59l.1.006.706.005c10 .122 20.08 2.806 31.056 7.877l1.617.758c7.354 3.503 14.078 7.455 25.606 14.789l9.985 6.368c4.003 2.536 6.255 3.915 9.302 5.714l1.5.878c15.444 8.957 27.467 13.352 39.447 13.46.095-.031.196-.047.301-.047 9.732 0 18.656-4.565 27.622-13.521 6.934-6.926 13.332-15.652 22.306-29.776l2.036-3.225 6.647-10.665c12.388-19.855 19.988-30.553 29.23-39.816C817.794 884.278 830.294 878 844.453 878z" transform="translate(-76 -878)"/>
        </g>
    </g>
</svg>
