<svg xmlns="http://www.w3.org/2000/svg" width="1920" height="395" viewBox="0 0 1920 395">
    <g fill="none" fill-rule="evenodd">
        <g fill="#3EC182">
            <path d="M-257.287 823.595c18.178-28.836 49.424-30.941 93.736-6.315C-97.083 854.218 43.93 956.5 99.506 956.5c55.576 0 89.13-94.13 146.254-106.96 57.125-12.828 92.108 32.44 150.333 32.44 58.225 0 117.05-93.397 173.641-93.397 74.909 0 125.52 145.555 208.247 155.36 82.727 9.804 108.234-87.283 178.535-87.283 70.3 0 112.68 135.975 210.98 129.272 98.3-6.703 178.268-108.854 243.878-113.169 65.61-4.314 82.993 96.027 172.81 71.18C1674 919.094 1808.718 681.41 1937 684.92c85.52 2.34 144.854-81.3 178-250.921v742H-505l247.713-352.405z" transform="translate(0 -685)"/>
        </g>
    </g>
</svg>
