<svg xmlns="http://www.w3.org/2000/svg" width="1920" height="291" viewBox="0 0 1920 291">
    <g fill="none" fill-rule="evenodd" stroke-linecap="round" stroke-linejoin="round">
        <g fill="#FFF" stroke="#1D1D1F" stroke-width="2">
            <path d="M-137.46 1200.884V889.801l30.093-3.301c141.671 0 168.915 77.389 213.017 77.389 35.018 0 72.99-64.9 112.272-64.9 53.51 0 126.73 142.791 218.425 142.791 79.164 0 132.62-92.998 190.627-92.998 55.017 0 70.117 37.86 119.62 37.86 49.502 0 66.886-87.652 126.508-87.652 59.62 0 108.574 120.575 165.435 120.575 49.171 0 108.421-144.59 192.501-144.59s126.755 88.914 183.239 88.914c56.483 0 74.923-51.936 127.761-51.936 52.839 0 104.086 123.658 160.785 123.658 83.258 0 164.397-199.818 255.785-288.789C1968.61 737.085 2014.5 668 2079 722v507l-2216.46-28.116z" transform="translate(0 -789)"/>
        </g>
    </g>
</svg>
