<svg xmlns="http://www.w3.org/2000/svg" width="1593" height="190" viewBox="0 0 1593 190">
    <g fill="none" fill-rule="evenodd">
        <g fill="#1D1D1F">
            <path d="M189.273 878c12.586 0 26.483 9.687 44.02 29.093l.532.59c6.693 7.45 13.789 16.119 22.849 27.772l3.49 4.518c5.66 7.372 20.236 26.471 24.791 32.34l2.225 2.857c21.826 27.946 38.556 46.757 55.88 61.57 22.342 19.106 43.541 29.112 64.638 29.112 18.203 0 35.943-6.485 54.467-18.946l1.065-.722c14-9.557 27.056-21.245 46.274-40.477l15.603-15.702 2.222-2.218c5.393-5.365 9.852-9.673 14.131-13.617l1.449-1.327c10.795-9.832 20.06-16.885 28.973-21.747 9.19-5.012 17.901-7.59 26.442-7.59.552 0 1 .448 1 1 0 .553-.448 1-1 1-8.177 0-16.57 2.484-25.484 7.346-8.947 4.88-18.307 12.05-29.305 22.127l-.72.662c-4.257 3.925-8.7 8.217-14.077 13.565l-9.638 9.679c-3.138 3.162-6.146 6.194-7.269 7.322l-2.368 2.368c-18.993 18.936-31.999 30.45-46.182 39.99-18.829 12.667-36.938 19.287-55.583 19.287-21.429 0-42.83-9.999-65.252-29.007l-.686-.584c-17.84-15.256-35.007-34.665-57.636-63.759l-3.374-4.364c-6.938-9.019-20.735-27.1-23.82-31.088l-2.433-3.135c-8.55-10.978-15.337-19.267-21.715-26.399l-.445-.496c-17.43-19.4-31.104-29.02-43.064-29.02-8.852 0-18.138 4.455-28.552 13.11l-.662.553c-7.253 6.107-13.887 12.999-25.1 25.66l-9.382 10.628c-10.37 11.683-14.83 16.301-21.124 21.84l-1.032.896C93.66 961.066 85.13 965.38 77 965.38c-.552 0-1-.448-1-1s.448-1 1-1c7.688 0 15.978-4.264 25.623-12.646l1.176-1.036c6.76-6.005 11.666-11.279 25.176-26.61l3.42-3.884c12.105-13.708 19-20.902 26.712-27.352l.336-.28c10.739-8.925 20.424-13.572 29.83-13.572zm655.179 0c14.703 0 29.233 9.14 44.968 26.802l.508.573c11.213 12.697 20.455 25.857 38.144 53.392l9.272 14.486c15.602 24.31 23.537 35.857 33.213 47.74l.32.391c14.012 17.15 26.731 27.587 39.292 31.283.53.156.833.712.677 1.242-.156.53-.712.833-1.241.677-12.861-3.785-25.69-14.223-39.715-31.252l-.562-.684c-9.992-12.23-18.02-23.92-34.178-49.113l-7.018-10.972c-18.779-29.31-28.219-42.862-39.704-55.866C872.841 889.049 858.61 880 844.452 880c-13.371 0-25.24 5.864-36.743 17.22l-.507.504c-8.757 8.776-16.065 18.928-27.568 37.253l-8.25 13.225-1.368 2.17c-9.288 14.664-15.854 23.662-23.036 30.836-9.31 9.3-18.707 14.106-29.036 14.106-.552 0-1-.448-1-1 0-.553.448-1 1-1 9.732 0 18.656-4.565 27.622-13.521 6.934-6.926 13.332-15.652 22.306-29.776l2.036-3.225 6.647-10.665c12.388-19.855 19.988-30.553 29.23-39.816C817.794 884.278 830.294 878 844.453 878zm662.31 6c11.515 0 23.334 7.33 36.386 21.483l.713.776c11.46 12.543 20.142 24.965 42.003 58.492l2.925 4.484c17.613 26.94 26.961 40.108 37.891 52.363l.994 1.104c14.378 15.84 27.343 23.98 39.872 23.98.552 0 1 .448 1 1 0 .553-.448 1-1 1-13.376 0-26.938-8.61-41.86-25.197l-.498-.556c-11.018-12.353-20.402-25.57-38.068-52.591l-6.197-9.495c-19.636-30.019-27.946-41.696-38.89-53.62l-.355-.385c-12.71-13.78-24.089-20.838-34.916-20.838-11.499 0-21.881 3.249-32.267 9.58l-.792.487c-7.36 4.578-13.758 9.875-24.288 19.642l-5.672 5.292c-12.484 11.629-19.237 17.24-27.86 22.502-11.686 7.13-23.569 10.822-36.883 10.822-.552 0-1-.447-1-1 0-.552.448-1 1-1 12.678 0 24.011-3.445 35.183-10.132l.658-.397c8.343-5.091 14.945-10.549 26.969-21.727l4.512-4.214c12.064-11.261 18.883-16.955 27.132-21.983 10.684-6.513 21.42-9.872 33.308-9.872zm-393.91 116.66c.38.4.365 1.033-.035 1.414l-.59.567c-3.436 3.332-6.786 7.101-11.74 13.054l-5.37 6.462c-8.385 10.026-11.107 12.812-15.686 16.123-.448.323-1.073.223-1.397-.225-.323-.447-.223-1.072.225-1.396l.488-.356c4.278-3.157 7.119-6.172 15.794-16.578l4.837-5.824c5.046-6.047 8.442-9.83 12.06-13.276.4-.38 1.033-.365 1.414.035z" transform="translate(-76 -878)"/>
        </g>
    </g>
</svg>
